<?xml version="1.0" encoding="UTF-8" standalone="yes"?>
<svg xmlns="http://www.w3.org/2000/svg" xmlns:xlink="http://www.w3.org/1999/xlink" width="50px" height="50px" viewBox="0 0 50 50" version="1.1" fill="#000000">
  <g id="surface154056">
    <path style=" stroke:none;fill-rule:nonzero;fill:#000000;fill-opacity:1;" d="M 8.59375 17 L 0 33 L 18.40625 33 L 27 17 Z M 27 17 L 27 32.691406 L 29.375 32.691406 L 29.375 31.132812 L 29.417969 31.132812 C 30.164062 32.628906 31.8125 33 33.351562 33 C 36.714844 33 38.253906 30.121094 38.253906 27.066406 C 38.253906 23.746094 36.515625 21.019531 32.933594 21.019531 C 31.660156 21.019531 30.230469 21.703125 29.546875 22.800781 L 29.503906 22.800781 L 29.503906 17 Z M 44.878906 21.019531 C 41.140625 21.019531 39.273438 23.703125 39.273438 27.132812 C 39.273438 30.472656 41.230469 33 44.792969 33 C 47.714844 33 49.539062 31.371094 50 28.425781 L 47.496094 28.425781 C 47.25 30.054688 46.242188 31.023438 44.792969 31.023438 C 42.613281 31.023438 41.78125 29.023438 41.78125 27.132812 C 41.78125 23.683594 43.601562 23 44.902344 23 C 46.285156 23 47.296875 23.75 47.496094 25.132812 L 50 25.132812 C 49.757812 22.34375 47.515625 21.019531 44.878906 21.019531 Z M 32.605469 23 C 34.667969 23 35.746094 24.957031 35.75 27.019531 C 35.75 29 34.890625 31.019531 32.605469 31.019531 C 30.582031 31.019531 29.417969 29.304688 29.417969 27.019531 C 29.417969 24.605469 30.496094 23 32.605469 23 Z M 32.605469 23 "/>
  </g>
</svg>
